# xmcd
#
# Track frame offsets:
#	150
#	21772
#	30688
#	41598
#	60148
#	70364
#	80657
#	88900
#	100246
#	112013
#	124768
#	147794
#	156568
#	174014
#	183854
#
# Disc length: 2636 seconds
#
# Revision: 5
# Processed by: cddbd v1.5.2PL0 Copyright (c) Steve Scherf et al.
# Submitted via: EZCDAudioConverter 2.1.7.1
#
DISCID=c40a4a0f
DTITLE=V/A - Hail To The King!
DYEAR=2006
DGENRE=MOJO
TTITLE0=Jeff Beck Group - All Shook Up
TTITLE1=Duffy Power - Lawdy Miss Clawdy
TTITLE2=Betty Everett - Hound Dog
TTITLE3=Albert King - That's All Right
TTITLE4=Little Richard - Money Honey
TTITLE5=Rockin' Rebels - Let's Play House
TTITLE6=Johnny Cash - I Forgot To Remember To Forget
TTITLE7=Link Wray - Love Me Tender
TTITLE8=Roy Orbison - Trying To Get To You
TTITLE9=Chris Clark - In The Ghetto
TTITLE10=El Vez - It's Now Or Never
TTITLE11=Jerry Lee Lewis - Don't Be Cruel
TTITLE12=Flamin' Groovies - Milkcow Blues
TTITLE13=Dean Carter - Jailhouse Rock
TTITLE14=Dead Kennedys - Viva Las Vegas
EXTD=
EXTT0=
EXTT1=
EXTT2=
EXTT3=
EXTT4=
EXTT5=
EXTT6=
EXTT7=
EXTT8=
EXTT9=
EXTT10=
EXTT11=
EXTT12=
EXTT13=
EXTT14=
PLAYORDER=
